<svg xmlns="http://www.w3.org/2000/svg" width="760" height="420" viewBox="0 0 760 420"><style>text{font-family:Arial,sans-serif;fill:currentColor}.title{font-size:20px;font-weight:700}.label{font-size:12px}.value{font-size:11px}.axis{stroke:currentColor;stroke-opacity:.45}.bar{fill:currentColor;fill-opacity:.72}</style><text class="title" x="165" y="30">Efficiency proxy by vehicle class</text><text class="label" x="155" y="86.4" text-anchor="end">compact</text><rect class="bar" x="165" y="67.3" width="518.5" height="26.5" rx="2"/><text class="value" x="690.5" y="86.4">23.1 MPG</text><text class="label" x="155" y="132.1" text-anchor="end">subcompact</text><rect class="bar" x="165" y="113.0" width="507.3" height="26.5" rx="2"/><text class="value" x="679.3" y="132.1">22.6 MPG</text><text class="label" x="155" y="177.8" text-anchor="end">midsize</text><rect class="bar" x="165" y="158.7" width="493.9" height="26.5" rx="2"/><text class="value" x="665.9" y="177.8">22.1 MPG</text><text class="label" x="155" y="223.5" text-anchor="end">2seater</text><rect class="bar" x="165" y="204.5" width="436.8" height="26.5" rx="2"/><text class="value" x="608.8" y="223.5">19.5 MPG</text><text class="label" x="155" y="269.3" text-anchor="end">minivan</text><rect class="bar" x="165" y="250.2" width="428.9" height="26.5" rx="2"/><text class="value" x="600.9" y="269.3">19.1 MPG</text><text class="label" x="155" y="315.0" text-anchor="end">suv</text><rect class="bar" x="165" y="295.9" width="343.8" height="26.5" rx="2"/><text class="value" x="515.8" y="315.0">15.3 MPG</text><text class="label" x="155" y="360.7" text-anchor="end">pickup</text><rect class="bar" x="165" y="341.6" width="331.5" height="26.5" rx="2"/><text class="value" x="503.5" y="360.7">14.8 MPG</text><line class="axis" x1="165" y1="55" x2="165" y2="380"/></svg>